<?xml version="1.0" standalone="no"?>
<!DOCTYPE svg PUBLIC "-//W3C//DTD SVG 20010904//EN"
 "http://www.w3.org/TR/2001/REC-SVG-20010904/DTD/svg10.dtd">
<svg version="1.0" xmlns="http://www.w3.org/2000/svg"
 width="218.000000pt" height="218.000000pt" viewBox="0 0 218.000000 218.000000"
 preserveAspectRatio="xMidYMid meet">
<metadata>
Created by potrace 1.14, written by Peter Selinger 2001-2017
</metadata>
<g transform="translate(0.000000,218.000000) scale(0.100000,-0.100000)"
fill="#000000" stroke="none">
<path d="M898 2173 c7 -3 16 -2 19 1 4 3 -2 6 -13 5 -11 0 -14 -3 -6 -6z"/>
<path d="M1633 2174 c8 -9 196 -30 225 -26 22 3 23 4 5 17 -13 10 -50 14 -127
15 -60 0 -107 -3 -103 -6z"/>
<path d="M1967 2169 c16 -16 113 -17 113 -1 0 8 -19 12 -62 12 -46 0 -59 -3
-51 -11z"/>
<path d="M2090 2161 c0 -6 8 -9 18 -9 9 0 31 -2 47 -6 l30 -7 -25 15 c-28 17
-70 21 -70 7z"/>
<path d="M1840 2111 c0 -11 114 -23 137 -14 15 6 12 9 -12 14 -45 10 -125 10
-125 0z"/>
<path d="M1200 2092 c0 -10 79 -22 148 -22 34 0 40 3 31 13 -14 14 -179 23
-179 9z"/>
<path d="M1650 2090 c0 -5 7 -10 15 -10 8 0 15 5 15 10 0 6 -7 10 -15 10 -8 0
-15 -4 -15 -10z"/>
<path d="M1605 2060 c3 -5 23 -10 43 -10 28 0 33 3 22 10 -20 13 -73 13 -65 0z"/>
<path d="M1174 2029 c18 -11 34 -15 80 -18 11 0 17 -3 14 -6 -3 -3 -70 -8
-149 -11 -79 -3 -162 -11 -184 -17 -22 -7 -65 -12 -95 -12 -43 0 -55 -4 -58
-17 -3 -14 3 -16 45 -11 26 4 64 5 83 4 19 -1 115 -2 212 -1 107 1 184 -3 195
-9 16 -9 16 -10 -4 -11 -13 0 -23 -3 -23 -8 0 -11 40 -33 50 -27 5 3 11 1 15
-5 3 -5 0 -10 -7 -10 -83 -2 -168 -14 -219 -30 -34 -11 -66 -20 -72 -20 -11 0
-47 -39 -47 -52 0 -12 17 -10 49 7 26 13 70 23 206 45 73 12 160 12 192 -1 15
-7 40 -11 55 -10 50 4 138 -68 138 -112 0 -17 -5 -18 -36 -12 -20 3 -43 12
-50 20 -11 10 -21 11 -46 3 -69 -22 -78 -27 -72 -42 4 -11 25 -13 105 -10 85
3 101 1 106 -13 8 -21 -34 -56 -59 -50 -23 6 -69 -31 -98 -79 l-22 -35 23 -23
c13 -13 40 -31 61 -39 32 -13 39 -13 57 -1 29 20 29 -4 1 -34 -33 -35 -68 -39
-94 -10 -24 28 -79 68 -94 68 -6 0 -14 -17 -19 -37 -9 -40 -26 -49 -68 -39
-22 6 -23 6 -6 52 l16 46 -35 30 c-19 16 -46 35 -60 42 -43 23 -235 42 -223
23 3 -5 -4 -6 -16 -2 -19 6 -20 4 -12 -19 7 -17 7 -26 -1 -28 -11 -4 -15 -62
-8 -113 7 -43 40 -57 130 -55 41 0 86 1 100 0 14 0 58 0 98 1 l73 1 -7 -29
c-4 -15 -7 -34 -7 -41 0 -20 -37 -31 -83 -26 -21 3 -70 4 -109 4 -60 0 -74 3
-98 24 -24 21 -109 49 -135 45 -17 -3 -32 2 -31 9 6 33 -3 42 -51 48 -27 4
-50 10 -50 15 0 16 -20 9 -27 -8 -4 -10 -11 -21 -17 -25 -7 -5 -7 -8 2 -8 8 0
12 -16 12 -45 0 -43 -2 -46 -30 -51 -34 -7 -39 -19 -10 -27 11 -3 21 -17 25
-33 3 -16 9 -45 14 -66 4 -20 4 -43 -1 -51 -5 -9 -4 -18 2 -22 14 -9 12 -57
-4 -80 -7 -11 -12 -33 -10 -48 2 -17 -2 -27 -9 -26 -31 4 -58 -2 -52 -11 3 -5
0 -10 -9 -10 -8 0 -16 5 -18 12 -2 6 -24 13 -48 15 -50 4 -79 21 -58 34 24 16
63 10 76 -11 7 -12 17 -18 22 -15 14 9 1 27 -13 19 -7 -3 -4 1 6 9 24 20 10
29 -73 42 -63 11 -65 12 -65 41 0 28 1 29 49 29 68 0 63 18 -8 27 -33 4 -61 9
-63 12 -9 9 22 56 38 56 10 0 21 5 24 10 3 6 0 10 -8 10 -8 0 -28 7 -43 15
-27 14 -28 15 -6 15 13 0 20 4 17 10 -3 6 0 10 8 10 8 0 18 7 21 16 3 9 13 14
21 10 8 -3 17 -1 20 5 4 5 -2 12 -12 15 -51 17 -70 29 -66 40 2 6 -3 14 -11
17 -9 4 -16 15 -16 26 0 20 5 20 97 16 76 -3 87 -2 48 5 -27 4 -71 9 -96 9
-53 1 -149 37 -149 57 0 19 -18 26 -37 15 -17 -10 -17 -10 0 -11 20 0 20 -1 7
-34 -8 -23 -6 -26 15 -32 16 -4 26 -15 30 -35 4 -16 11 -29 16 -29 4 0 6 -13
3 -30 -4 -18 -2 -30 4 -30 5 0 8 -10 5 -21 -4 -15 0 -27 12 -35 16 -12 9 -14
-56 -15 -74 -1 -72 -4 12 -23 18 -4 28 -14 31 -30 6 -28 -11 -36 -77 -36 -30
0 -36 -3 -25 -10 8 -5 25 -10 37 -10 12 0 33 -5 47 -11 20 -10 23 -15 16 -30
-7 -12 -6 -20 1 -25 8 -5 7 -9 -4 -15 -10 -6 -14 -18 -11 -34 2 -14 0 -25 -6
-25 -5 0 -10 -7 -10 -15 0 -8 -4 -15 -10 -15 -5 0 -10 -10 -10 -22 0 -12 -7
-29 -15 -38 -8 -9 -17 -43 -19 -74 -3 -32 -7 -60 -10 -63 -3 -3 -56 -5 -118
-6 -70 0 -87 -2 -45 -4 37 -2 67 -8 67 -12 0 -5 11 -12 25 -15 31 -8 32 -20 4
-40 -16 -11 -28 -12 -50 -4 -16 5 -29 14 -29 19 0 11 -62 12 -149 3 -58 -6
-61 -8 -61 -33 0 -26 1 -26 75 -26 41 0 75 3 75 6 0 9 57 -5 92 -21 16 -7 28
-19 28 -26 0 -7 6 -19 13 -26 41 -43 4 -73 -74 -58 -80 15 -209 13 -209 -4 0
-14 79 -26 181 -26 33 0 59 -3 59 -6 0 -4 -11 -17 -26 -30 l-25 -24 32 0 c28
0 31 -2 25 -25 -4 -16 -2 -25 5 -25 8 0 8 -4 -1 -15 -11 -13 -9 -19 9 -34 26
-23 27 -57 2 -71 -21 -11 -89 -9 -108 3 -8 5 -13 4 -13 -2 0 -6 -7 -11 -15
-11 -8 0 -15 5 -15 10 0 6 -25 10 -55 10 l-55 0 0 -38 0 -37 118 -18 c64 -10
132 -21 150 -24 28 -5 34 -10 43 -49 9 -33 16 -44 31 -44 20 0 53 26 53 42 0
26 75 37 131 19 16 -6 73 -12 128 -15 54 -3 103 -10 110 -15 25 -20 120 -24
754 -28 l662 -4 0 281 0 280 -22 1 c-48 3 -53 4 -56 20 -2 11 6 18 23 21 14 3
25 1 25 -3 0 -5 7 -6 15 -3 8 4 15 12 15 19 0 15 -31 25 -77 25 -18 0 -33 4
-33 9 0 5 17 9 38 9 64 0 72 2 72 11 0 5 -32 12 -71 16 -47 5 -72 12 -76 22
-3 7 -2 17 2 21 4 4 10 1 12 -6 3 -6 9 -10 14 -6 5 3 9 2 9 -3 0 -4 25 -8 55
-8 52 -1 55 1 55 23 0 26 -25 51 -50 52 -13 0 -13 -1 0 -10 11 -7 11 -10 2
-10 -7 0 -24 7 -38 16 -13 9 -38 18 -55 20 -39 5 -45 9 -52 35 -6 20 -4 21 94
14 69 -5 99 -3 99 4 0 12 -9 14 -52 13 -16 0 -28 3 -28 7 0 5 -10 6 -22 4 -13
-2 -41 0 -63 4 -33 7 -41 14 -49 41 -11 39 -25 42 -19 5 4 -27 4 -27 -12 -8
-8 11 -14 26 -13 35 2 8 -5 24 -14 35 -10 11 -22 33 -27 50 -7 27 -5 30 18 33
14 2 29 8 32 14 5 7 29 7 75 0 163 -26 174 -26 174 -3 0 18 -6 21 -52 23 -29
1 -81 3 -115 4 -34 1 -65 4 -70 7 -4 2 -25 7 -45 11 -28 5 -36 11 -35 26 1 11
7 20 15 20 7 0 10 5 7 10 -4 6 10 10 34 10 22 0 41 5 43 12 4 10 10 10 32 0
15 -6 40 -12 57 -12 17 0 28 -3 25 -8 -2 -4 20 -9 50 -10 51 -3 54 -2 54 20
-1 38 -38 56 -116 58 -126 3 -123 3 -118 -26 4 -22 2 -25 -13 -19 -10 4 -27 8
-38 10 -11 1 -24 3 -30 4 -5 1 -3 6 5 11 8 5 11 10 6 10 -5 0 -3 7 4 15 11 13
8 15 -14 15 -22 0 -27 4 -24 21 3 19 11 21 83 24 107 4 114 5 90 14 -11 4 -49
9 -85 10 -36 1 -80 6 -98 12 -31 10 -32 12 -31 62 1 43 -15 119 -48 220 -4 13
0 17 20 17 14 0 29 5 32 10 6 9 -11 14 -45 11 -8 0 -20 2 -26 7 -13 9 -27 85
-13 77 5 -4 19 1 31 9 21 15 20 15 -20 22 -23 4 -42 11 -42 16 0 5 -17 16 -37
24 -21 9 -51 28 -68 44 -16 15 -41 31 -55 35 -14 4 -34 15 -45 25 -21 19 -143
52 -158 43 -4 -3 -20 -2 -33 1 -21 6 -23 10 -14 21 9 11 31 12 101 8 64 -4 89
-3 89 6 0 6 -19 12 -47 13 -27 1 -61 3 -78 5 -16 2 -66 5 -110 8 -64 5 -76 3
-61 -6z m-144 -69 c0 -5 -4 -10 -10 -10 -5 0 -10 5 -10 10 0 6 5 10 10 10 6 0
10 -4 10 -10z m681 -357 c0 -10 2 -38 4 -63 2 -29 1 -39 -6 -30 -5 8 -9 24 -9
36 0 11 -5 25 -11 31 -13 13 -5 43 11 43 5 0 10 -8 11 -17z m-131 -84 c-7 -11
-14 -18 -17 -15 -3 3 0 12 7 21 18 21 23 19 10 -6z m162 -111 c1 -15 0 -27 -4
-28 -24 -1 -27 2 -21 17 5 12 2 15 -10 10 -9 -3 -17 -2 -17 3 0 6 7 10 15 10
8 0 15 8 15 17 0 26 18 2 22 -29z m-832 -108 c30 -59 27 -73 -12 -65 -45 10
-70 34 -66 64 2 17 11 27 28 32 14 4 26 7 27 8 2 1 12 -17 23 -39z m-403 14
c-3 -3 -12 -4 -19 -1 -8 3 -5 6 6 6 11 1 17 -2 13 -5z m1129 -9 c-2 -5 -15 -9
-30 -7 -17 2 -26 -2 -26 -11 0 -9 -24 -17 -77 -25 -107 -17 -110 -16 -88 8 10
11 25 20 34 20 9 0 34 7 56 14 45 16 137 17 131 1z m-639 -43 c9 -6 7 -12 -7
-25 -19 -16 -20 -16 -20 8 0 26 7 30 27 17z m83 -65 c64 -12 75 -23 54 -55 -8
-12 -12 -28 -8 -34 4 -7 3 -8 -4 -4 -7 4 -12 2 -12 -3 0 -6 14 -11 31 -11 21
0 28 -4 23 -12 -5 -10 -4 -10 6 -1 8 7 22 8 43 2 19 -5 35 -5 43 2 9 7 19 7
35 -1 12 -7 37 -12 55 -12 19 0 36 -4 39 -8 6 -9 45 -1 45 9 0 11 140 30 185
26 22 -2 43 -4 47 -4 4 -1 7 -16 6 -35 -1 -29 -6 -36 -37 -49 -50 -21 -91 -32
-71 -18 12 8 12 11 -3 17 -16 6 -17 8 -2 31 9 14 15 26 13 28 -6 6 -113 -15
-115 -22 -4 -12 -194 -6 -226 6 -16 6 -60 11 -98 11 -64 0 -69 -2 -69 -21 0
-15 -4 -19 -16 -15 -9 3 -22 6 -30 6 -9 0 -12 5 -9 10 3 6 2 10 -3 10 -10 0
-23 136 -15 158 4 8 12 10 22 6 9 -4 41 -12 71 -17z m-133 -12 c6 -14 7 -25 3
-25 -4 0 -3 -16 3 -35 14 -46 -1 -64 -30 -38 -14 12 -23 36 -27 71 -6 49 -6
52 16 52 15 0 27 -9 35 -25z m840 -37 c-3 -8 -6 -5 -6 6 -1 11 2 17 5 13 3 -3
4 -12 1 -19z m-489 -5 c-2 -8 -6 -14 -10 -14 -5 1 -19 1 -33 1 -15 0 -25 6
-25 15 0 10 10 14 35 13 25 -1 35 -6 33 -15z m72 3 c0 -3 -4 -8 -10 -11 -5 -3
-10 -1 -10 4 0 6 5 11 10 11 6 0 10 -2 10 -4z m90 -9 c0 -8 -7 -14 -15 -14
-16 0 -19 9 -8 20 11 11 23 8 23 -6z m210 -7 c0 -5 -6 -10 -14 -10 -8 0 -18 5
-21 10 -3 6 3 10 14 10 12 0 21 -4 21 -10z m120 -80 c0 -16 -4 -30 -10 -30
-11 0 -14 43 -3 53 11 12 13 8 13 -23z m-1264 -16 c-4 -9 -9 -15 -11 -12 -3 3
-3 13 1 22 4 9 9 15 11 12 3 -3 3 -13 -1 -22z m407 -6 c15 -6 27 -14 27 -19 0
-5 12 -9 27 -9 l27 0 -24 -17 c-27 -19 -68 -25 -116 -18 -28 5 -31 9 -32 46
l-2 41 33 -7 c17 -3 44 -11 60 -17z m311 -17 c7 -6 22 -13 33 -15 10 -2 37 -9
60 -15 57 -16 110 -11 130 11 18 20 33 23 33 8 0 -5 -8 -11 -17 -11 -17 -1
-17 -2 -1 -6 14 -4 16 -8 8 -24 -8 -14 -21 -19 -55 -19 -57 0 -146 20 -166 37
-9 7 -29 12 -45 11 -27 -2 -134 28 -134 38 0 10 140 -4 154 -15z m196 -12 c0
-12 -97 -12 -104 0 -4 5 -2 11 4 13 20 6 100 -4 100 -13z m-383 -15 c-3 -3
-12 -4 -19 -1 -8 3 -5 6 6 6 11 1 17 -2 13 -5z m114 -8 c24 -3 65 -33 57 -41
-4 -4 -15 -4 -25 0 -10 5 -26 7 -35 6 -22 -3 -78 26 -78 41 0 7 11 8 33 3 17
-4 39 -8 48 -9z m467 -32 c-7 -15 -23 -27 -40 -31 -29 -6 -37 -18 -15 -26 6
-2 9 -8 5 -12 -10 -10 -48 36 -45 55 1 8 20 20 42 26 62 19 66 18 53 -12z
m-1088 9 c0 -5 -5 -15 -10 -23 -8 -12 -10 -11 -10 8 0 12 5 22 10 22 6 0 10
-3 10 -7z m1216 -40 c-11 -11 -19 6 -11 24 8 17 8 17 12 0 3 -10 2 -21 -1 -24z
m-1256 23 c0 -3 -4 -8 -10 -11 -5 -3 -10 -1 -10 4 0 6 5 11 10 11 6 0 10 -2
10 -4z m767 -18 c-3 -8 -6 -5 -6 6 -1 11 2 17 5 13 3 -3 4 -12 1 -19z m123 -8
c23 -7 23 -8 -10 -10 -19 -1 -39 -1 -45 0 -5 1 -16 3 -22 3 -7 0 -13 4 -13 9
0 10 56 9 90 -2z m-205 -10 c3 -5 1 -10 -4 -10 -6 0 -11 5 -11 10 0 6 2 10 4
10 3 0 8 -4 11 -10z m-535 -30 c0 -5 -6 -10 -14 -10 -8 0 -18 5 -21 10 -3 6 3
10 14 10 12 0 21 -4 21 -10z m556 -17 c-10 -10 -19 5 -10 18 6 11 8 11 12 0 2
-7 1 -15 -2 -18z m474 2 c-7 -9 -15 -13 -18 -10 -3 2 1 11 8 20 7 9 15 13 18
10 3 -2 -1 -11 -8 -20z m200 -14 c0 -19 -17 -38 -25 -29 -7 7 7 48 16 48 5 0
9 -9 9 -19z m-1200 -29 c3 -3 -3 -2 -12 1 -10 4 -18 2 -18 -3 0 -5 -10 -12
-21 -15 -17 -6 -19 -9 -8 -17 11 -8 10 -8 -4 -4 -10 3 -23 6 -28 6 -5 0 -9 5
-9 10 0 6 10 10 22 10 12 0 19 3 15 6 -3 3 0 12 6 19 11 12 39 5 57 -13z m60
8 c0 -5 -10 -10 -22 -10 -19 0 -20 2 -8 10 19 13 30 13 30 0z m150 -30 c21
-11 41 -24 45 -29 3 -6 12 -8 20 -5 7 3 24 0 36 -7 l23 -12 -24 -10 -25 -10
30 -6 c31 -6 43 -36 15 -36 -8 0 -14 6 -12 13 1 8 -2 11 -7 7 -6 -3 -23 8 -39
25 -19 19 -35 28 -45 24 -10 -3 -26 4 -42 20 -14 14 -30 26 -35 26 -6 0 -10 5
-10 10 0 16 27 12 70 -10z m-340 -10 c0 -12 -44 -20 -53 -11 -15 15 1 29 28
23 14 -2 25 -8 25 -12z m1240 1 c0 -6 -4 -13 -10 -16 -5 -3 -10 -15 -10 -26 0
-18 -11 -25 -22 -13 -8 7 21 64 33 64 5 0 9 -4 9 -9z m101 -17 c12 -14 11 -16
-5 -13 -11 2 -21 10 -24 17 -5 17 13 15 29 -4z m-1101 -14 c0 -5 -16 -10 -35
-10 -19 0 -35 5 -35 10 0 6 16 10 35 10 19 0 35 -4 35 -10z m-240 -24 c27 -18
41 -21 60 -14 13 5 31 6 39 2 9 -4 22 -6 29 -5 6 1 12 -5 12 -14 0 -8 5 -15
11 -15 6 0 4 -7 -5 -15 -19 -19 -26 -19 -26 1 0 9 -6 14 -12 12 -7 -3 -13 -13
-13 -24 0 -10 -8 -20 -17 -22 -12 -2 -16 1 -13 10 8 24 -21 51 -47 42 -57 -19
-138 7 -138 45 0 29 75 27 120 -3z m-142 -14 c-5 -27 -28 -26 -28 2 0 19 4 24
15 19 9 -3 15 -12 13 -21z m811 9 c8 -5 9 -11 3 -15 -13 -8 -42 3 -42 15 0 11
21 11 39 0z m665 -7 c3 -8 2 -12 -4 -9 -6 3 -10 10 -10 16 0 14 7 11 14 -7z
m-1114 -6 c0 -6 7 -20 17 -30 10 -12 12 -18 4 -18 -7 0 -9 -4 -6 -10 4 -6 -1
-7 -12 -3 -41 15 -59 73 -23 73 11 0 20 -5 20 -12z m145 -48 c-3 -5 1 -11 7
-13 7 -3 -1 -6 -17 -6 -47 -1 -78 42 -37 52 19 4 54 -21 47 -33z m175 19 c0
-5 -4 -9 -10 -9 -5 0 -10 7 -10 16 0 8 5 12 10 9 6 -3 10 -10 10 -16z m48 4
c6 -19 -25 -16 -32 3 -4 11 -1 14 11 12 9 -2 18 -9 21 -15z m178 -28 c10 -8
14 -15 8 -15 -5 0 -19 7 -30 15 -10 8 -14 15 -8 15 5 0 19 -7 30 -15z m-986
-4 c0 -6 -4 -13 -10 -16 -5 -3 -10 1 -10 9 0 9 5 16 10 16 6 0 10 -4 10 -9z
m855 -18 c3 -9 3 -18 1 -21 -9 -8 -66 20 -66 32 0 18 57 7 65 -11z m-665 8 c0
-4 17 -15 38 -24 l37 -15 -50 3 c-27 2 -56 3 -64 4 -15 1 -7 15 10 17 22 3 23
6 4 14 -19 8 -19 9 3 9 12 1 22 -3 22 -8z m128 -33 c8 -8 15 -8 27 2 12 10 18
10 30 0 22 -19 10 -28 -32 -23 -49 5 -63 10 -63 23 0 14 23 13 38 -2z m275 5
c-7 -2 -21 -2 -30 0 -10 3 -4 5 12 5 17 0 24 -2 18 -5z m-109 -18 c32 -14 51
-45 26 -45 -5 0 -10 6 -10 14 0 9 -7 12 -18 9 -24 -6 -75 14 -67 27 9 14 26
13 69 -5z m91 -5 c3 -5 -1 -10 -10 -10 -9 0 -13 5 -10 10 3 6 8 10 10 10 2 0
7 -4 10 -10z m82 -6 c-4 -4 5 -20 19 -37 24 -29 26 -53 2 -29 -7 7 -24 12 -38
12 -14 0 -35 7 -46 15 -10 8 -30 15 -44 15 -18 1 -13 5 20 14 49 15 97 20 87
10z m109 -82 c-4 -3 -19 -1 -34 4 -19 7 -28 17 -30 38 -6 48 19 50 46 5 13
-22 21 -43 18 -47z m163 67 c17 -6 31 -14 31 -18 0 -4 12 -8 27 -9 34 -3 44
-12 13 -12 -32 0 -130 32 -130 42 0 11 21 10 59 -3z m182 -32 c-11 -11 -41 -3
-41 11 0 5 12 7 26 4 17 -3 22 -8 15 -15z m221 -15 c19 -19 -3 -33 -48 -31
-24 2 -41 5 -39 7 3 3 0 12 -7 19 -9 11 -9 16 1 22 15 10 79 -3 93 -17z
m-1203 -6 c9 -11 20 -12 53 -3 29 7 46 7 59 -1 10 -6 48 -16 85 -22 37 -6 76
-16 88 -23 23 -12 23 -13 106 -22 31 -3 60 -12 66 -21 9 -11 13 -12 16 -3 3 8
18 10 52 5 46 -7 47 -8 45 -39 -2 -18 -8 -38 -13 -46 -8 -11 -8 -13 1 -8 6 4
14 3 17 -2 10 -16 -12 -23 -35 -10 -16 8 -18 13 -9 19 9 6 7 11 -10 20 -12 6
-19 14 -16 17 16 16 -17 31 -56 25 -31 -4 -44 -1 -53 11 -7 10 -22 15 -41 13
-16 -2 -35 1 -41 6 -18 14 -29 -18 -13 -37 6 -8 9 -19 5 -25 -10 -17 -33 6
-40 41 -4 16 -11 29 -16 29 -12 0 -12 -33 1 -46 10 -10 3 -54 -10 -54 -4 0
-13 18 -20 40 -15 47 -33 65 -55 56 -13 -5 -14 -8 -3 -20 7 -8 18 -13 23 -13
6 1 10 -5 10 -13 0 -9 -11 -16 -27 -18 -23 -3 -28 1 -28 17 0 25 -13 27 -34 6
-18 -19 -37 -20 -30 -2 6 16 -32 35 -89 43 -51 8 -65 23 -59 64 4 25 9 30 32
30 15 0 33 -6 39 -14z m706 -17 c11 -17 -1 -21 -15 -4 -8 9 -8 15 -2 15 6 0
14 -5 17 -11z m55 -14 c0 -2 -9 -3 -19 -2 -11 0 -18 5 -15 9 4 6 34 0 34 -7z
m128 3 c6 -1 12 -6 12 -11 0 -5 7 -7 15 -3 8 3 15 2 15 -3 0 -4 16 -8 35 -9
20 -1 43 -6 53 -11 25 -14 -136 -7 -182 9 -23 7 -34 16 -29 23 4 7 -1 6 -10
-2 -10 -8 -21 -11 -24 -7 -14 14 23 27 62 21 22 -3 46 -7 53 -7z m368 -49 c3
-5 -5 -9 -18 -10 -13 0 -33 -2 -45 -3 -20 -2 -31 13 -18 25 7 8 75 -2 81 -12z
m-161 1 c3 -5 -1 -10 -9 -10 -9 0 -16 5 -16 10 0 6 4 10 9 10 6 0 13 -4 16
-10z m65 0 c0 -5 -7 -10 -15 -10 -8 0 -15 5 -15 10 0 6 7 10 15 10 8 0 15 -4
15 -10z m-540 -72 c-1 -28 -2 -30 -11 -15 -6 10 -8 25 -5 33 9 24 16 16 16
-18z m-265 11 c11 -17 -1 -21 -15 -4 -8 9 -8 15 -2 15 6 0 14 -5 17 -11z m80
2 c-3 -5 3 -12 12 -14 11 -3 8 -5 -9 -6 -19 -1 -28 4 -28 14 0 8 7 15 16 15 8
0 13 -4 9 -9z m373 -16 c16 -5 22 -15 22 -36 0 -40 -33 -39 -71 2 l-29 31 0
-27 c0 -16 -4 -24 -11 -20 -5 4 -9 14 -7 23 2 10 -2 22 -10 27 -16 13 70 13
106 0z m122 6 c0 -5 -9 -7 -20 -4 -11 3 -20 7 -20 9 0 2 9 4 20 4 11 0 20 -4
20 -9z m240 -17 c0 -8 -5 -12 -10 -9 -6 4 -8 11 -5 16 9 14 15 11 15 -7z
m-1216 -2 c5 -8 80 -7 94 2 4 2 48 -6 97 -19 60 -16 91 -21 96 -14 4 8 13 8
27 0 11 -6 27 -8 35 -5 8 3 18 1 22 -5 3 -6 19 -11 34 -11 29 0 51 -16 51 -36
0 -13 -24 -11 -89 6 -19 5 -37 7 -41 5 -4 -2 -22 0 -41 6 -19 5 -69 12 -112
14 -44 2 -85 9 -93 16 -7 6 -34 12 -58 13 -49 2 -62 9 -51 25 7 13 22 14 29 3z
m1622 -30 c6 -4 14 -22 17 -39 6 -29 4 -33 -16 -33 -16 0 -18 3 -8 9 11 7 9
10 -8 16 -14 4 -21 15 -21 31 0 24 15 31 36 16z m-446 -22 c0 -11 -2 -20 -4
-20 -2 0 -6 9 -9 20 -3 11 -1 20 4 20 5 0 9 -9 9 -20z m93 1 c4 -1 7 -5 7 -11
0 -9 -46 -11 -63 -3 -15 8 3 20 25 17 13 -1 26 -3 31 -3z m200 2 c12 -20 11
-77 -1 -81 -7 -2 -13 2 -11 9 3 28 -1 39 -16 39 -8 0 -15 2 -15 4 0 2 -3 11
-6 20 -5 12 0 16 19 16 14 0 28 -3 30 -7z m-163 -19 c0 -8 -4 -12 -10 -9 -5 3
-10 10 -10 16 0 5 5 9 10 9 6 0 10 -7 10 -16z m-1270 -4 c0 -5 -9 -10 -19 -10
-11 0 -23 5 -26 10 -4 6 5 10 19 10 14 0 26 -4 26 -10z m510 -15 c0 -5 4 -4 9
4 8 12 12 12 25 2 9 -7 22 -11 29 -8 14 5 40 -27 30 -37 -10 -10 -63 -7 -86 6
-12 6 -35 14 -51 17 -47 10 -44 30 3 28 23 -1 41 -6 41 -12z m-413 -10 c0 -9
-9 -15 -21 -15 -21 1 -21 1 -2 15 24 18 23 18 23 0z m-80 -1 c13 -4 20 -10 17
-15 -3 -5 10 -9 28 -9 19 0 44 -7 57 -16 20 -14 28 -15 61 -4 34 11 41 11 68
-8 21 -16 32 -18 40 -10 14 14 52 -17 52 -43 0 -15 -8 -17 -57 -14 -31 2 -59
8 -62 13 -3 5 -37 10 -76 11 -87 2 -173 9 -197 17 -12 3 -18 15 -18 33 0 45
29 60 87 45z m-140 -51 c-4 -17 -4 -17 -12 0 -4 9 -4 25 0 35 8 16 8 16 12 0
3 -10 3 -26 0 -35z m840 21 c5 -15 7 -15 15 0 8 14 13 15 24 5 8 -6 14 -7 14
-2 0 16 78 9 95 -8 29 -28 -1 -37 -90 -28 -96 11 -105 14 -105 34 0 20 39 20
47 -1z m213 -8 c0 5 6 2 13 -7 7 -9 21 -19 32 -22 11 -2 -4 -5 -32 -6 -45 -1
-53 2 -53 17 0 26 11 34 27 21 7 -6 13 -8 13 -3z m223 -21 c51 -13 23 -30 -49
-30 -88 -1 -104 3 -104 24 0 10 2 20 5 22 5 5 106 -6 148 -16z m67 -16 c0 -5
-4 -9 -10 -9 -5 0 -10 7 -10 16 0 8 5 12 10 9 6 -3 10 -10 10 -16z m70 1 c0
-5 -5 -10 -11 -10 -5 0 -7 5 -4 10 3 6 8 10 11 10 2 0 4 -4 4 -10z m-907 -20
c6 -23 27 -27 27 -6 0 24 20 29 41 10 23 -21 25 -47 4 -64 -13 -11 -18 -10
-31 9 -9 12 -19 19 -24 16 -18 -11 -48 14 -43 35 7 26 19 26 26 0z m238 -37
c11 -31 -4 -46 -36 -36 -28 8 -35 23 -22 45 17 26 46 22 58 -9z m800 0 c6 -17
6 -30 0 -36 -5 -5 -7 -16 -4 -23 7 -18 -11 -18 -26 0 -15 18 -10 86 7 86 7 0
17 -12 23 -27z m-685 0 c10 -15 15 -16 25 -5 28 27 99 0 99 -39 0 -28 -66 -28
-75 1 -8 25 -45 27 -45 3 -1 -17 -1 -17 -11 0 -8 14 -14 16 -24 7 -18 -15 -35
-5 -35 20 0 11 9 20 23 23 12 2 24 5 26 6 2 0 10 -7 17 -16z m214 -36 c0 -20
-1 -20 -16 -5 -9 9 -13 21 -9 27 10 16 25 3 25 -22z m216 7 c-3 -8 1 -14 9
-14 15 0 21 -21 9 -32 -3 -3 -18 1 -35 9 -25 13 -33 13 -58 0 -26 -13 -32 -13
-50 0 -23 15 -29 48 -8 40 6 -2 20 0 31 5 12 7 21 7 25 -1 4 -6 18 -12 31 -13
19 -2 24 1 22 14 -2 13 2 16 13 12 9 -4 14 -13 11 -20z m187 -19 c4 -24 3 -25
-14 -9 -10 9 -22 13 -28 10 -5 -4 -12 -2 -15 3 -4 5 6 12 21 14 16 2 29 5 29
6 1 0 4 -10 7 -24z m303 10 c-3 -8 -1 -15 4 -15 6 0 10 -9 10 -20 0 -24 -16
-26 -28 -4 -11 20 -4 54 10 54 6 0 8 -7 4 -15z"/>
<path d="M798 583 c7 -3 16 -2 19 1 4 3 -2 6 -13 5 -11 0 -14 -3 -6 -6z"/>
<path d="M584 454 c3 -9 6 -20 6 -25 0 -21 15 -7 16 16 1 16 -3 25 -13 25 -10
0 -13 -6 -9 -16z"/>
<path d="M650 200 c0 -5 5 -10 11 -10 5 0 7 5 4 10 -3 6 -8 10 -11 10 -2 0 -4
-4 -4 -10z"/>
<path d="M1700 1990 c0 -5 5 -10 10 -10 6 0 10 5 10 10 0 6 -4 10 -10 10 -5 0
-10 -4 -10 -10z"/>
<path d="M1954 1989 c-4 -7 -22 -9 -50 -4 -52 7 -61 -11 -10 -20 46 -9 69 -3
72 18 3 19 -2 22 -12 6z"/>
<path d="M1135 1910 c-13 -6 9 -9 65 -9 56 0 78 3 65 9 -11 5 -40 9 -65 9 -25
0 -54 -4 -65 -9z"/>
<path d="M628 1883 c7 -3 16 -2 19 1 4 3 -2 6 -13 5 -11 0 -14 -3 -6 -6z"/>
<path d="M902 1872 c-22 -14 29 -31 58 -20 24 10 24 11 5 18 -26 11 -47 12
-63 2z"/>
<path d="M831 1831 c-10 -6 -9 -10 3 -14 8 -3 18 -2 21 3 8 13 -9 20 -24 11z"/>
<path d="M1975 1800 c3 -5 24 -10 46 -10 24 0 38 4 34 10 -3 6 -24 10 -46 10
-24 0 -38 -4 -34 -10z"/>
<path d="M1486 1781 c-3 -5 3 -11 14 -14 21 -5 32 1 24 14 -7 12 -31 11 -38 0z"/>
<path d="M1830 1770 c-13 -8 -12 -10 3 -10 9 0 17 5 17 10 0 12 -1 12 -20 0z"/>
<path d="M1860 1762 c0 -5 21 -10 46 -11 26 0 50 -3 54 -6 11 -7 40 5 40 16 0
5 -31 9 -70 9 -38 0 -70 -4 -70 -8z"/>
<path d="M978 1745 c-3 -3 -20 -7 -38 -10 -18 -2 -37 -10 -42 -17 -8 -10 -11
-10 -15 0 -2 6 -10 12 -16 12 -5 0 -7 -3 -4 -7 4 -3 2 -12 -4 -20 -9 -10 -8
-13 4 -13 9 0 19 -5 23 -12 4 -7 3 -8 -4 -4 -8 5 -10 1 -5 -10 6 -15 7 -15 18
-1 17 24 78 30 188 18 95 -10 171 -6 162 9 -2 4 -61 8 -130 9 -134 2 -174 8
-137 22 12 5 22 13 22 19 0 11 -13 14 -22 5z"/>
<path d="M1997 1739 c-10 -6 -51 -10 -92 -10 -76 0 -105 -13 -38 -17 20 -2 41
-6 47 -10 6 -4 25 -7 41 -8 17 -1 46 -3 65 -4 61 -4 66 -1 40 17 -14 9 -29 23
-35 30 -7 9 -15 9 -28 2z"/>
<path d="M1765 1730 c3 -5 8 -10 11 -10 2 0 4 5 4 10 0 6 -5 10 -11 10 -5 0
-7 -4 -4 -10z"/>
<path d="M710 1706 c0 -8 51 -13 56 -5 3 5 -9 9 -25 9 -17 0 -31 -2 -31 -4z"/>
<path d="M790 1700 c-12 -8 -9 -10 13 -10 16 0 26 4 22 10 -8 12 -16 12 -35 0z"/>
<path d="M1355 1700 c-3 -5 -1 -10 4 -10 6 0 11 5 11 10 0 6 -2 10 -4 10 -3 0
-8 -4 -11 -10z"/>
<path d="M1905 1660 c-4 -6 7 -10 27 -10 25 0 29 3 18 10 -19 13 -37 13 -45 0z"/>
<path d="M1054 1637 c-19 -10 -37 -24 -40 -32 -3 -7 -14 -15 -25 -18 -10 -3
-19 -10 -19 -17 0 -16 37 -3 61 21 17 17 45 24 89 21 7 0 26 6 41 13 20 11 35
12 63 4 21 -6 45 -8 54 -6 11 3 7 5 -8 6 -15 0 -30 5 -35 10 -6 5 -41 11 -78
13 -51 2 -77 -2 -103 -15z"/>
<path d="M2010 1650 c0 -5 16 -10 36 -10 21 0 33 4 29 10 -3 6 -19 10 -36 10
-16 0 -29 -4 -29 -10z"/>
<path d="M319 1548 c-8 -30 -6 -38 7 -27 9 8 14 8 14 1 0 -6 -7 -15 -16 -20
-12 -7 -13 -11 -5 -16 7 -4 19 -2 28 6 9 7 19 13 22 13 3 0 5 3 4 8 -2 4 10 7
26 7 41 0 48 16 8 18 -18 0 -44 3 -59 6 -16 4 -28 5 -29 4z"/>
<path d="M528 1523 c7 -3 16 -2 19 1 4 3 -2 6 -13 5 -11 0 -14 -3 -6 -6z"/>
<path d="M590 1521 c0 -6 23 -12 55 -12 30 -1 60 -3 65 -4 6 -1 33 -3 60 -4
40 -1 50 -4 50 -18 0 -15 2 -14 14 2 8 11 13 22 11 25 -2 3 -52 7 -112 8 -59
2 -116 5 -125 8 -10 3 -18 1 -18 -5z"/>
<path d="M358 1473 c6 -2 18 -2 25 0 6 3 1 5 -13 5 -14 0 -19 -2 -12 -5z"/>
<path d="M1916 1451 c15 -15 66 -17 71 -3 3 8 -8 12 -38 12 -27 0 -39 -4 -33
-9z"/>
<path d="M2075 1450 c-3 -5 1 -10 10 -10 9 0 13 5 10 10 -3 6 -8 10 -10 10 -2
0 -7 -4 -10 -10z"/>
<path d="M2142 1453 c-17 -7 -5 -23 19 -23 10 0 19 7 19 15 0 15 -14 18 -38 8z"/>
<path d="M118 1413 c6 -2 18 -2 25 0 6 3 1 5 -13 5 -14 0 -19 -2 -12 -5z"/>
<path d="M168 1403 c7 -3 16 -2 19 1 4 3 -2 6 -13 5 -11 0 -14 -3 -6 -6z"/>
<path d="M720 1359 c0 -5 5 -7 10 -4 6 3 10 8 10 11 0 2 -4 4 -10 4 -5 0 -10
-5 -10 -11z"/>
<path d="M2142 1323 c-6 -3 -10 -9 -6 -14 7 -12 44 -12 44 0 0 11 -21 19 -38
14z"/>
<path d="M1898 1252 c-7 -26 4 -29 23 -5 8 9 9 14 2 10 -6 -4 -13 -2 -15 5 -3
7 -7 2 -10 -10z"/>
<path d="M647 1254 c-8 -8 1 -24 14 -24 5 0 9 7 9 15 0 15 -12 20 -23 9z"/>
<path d="M11 1201 c-20 -13 10 -20 84 -19 l60 1 -55 13 c-66 16 -71 16 -89 5z"/>
<path d="M0 1012 c0 -5 48 -12 108 -16 59 -3 127 -9 152 -11 35 -4 40 -3 23 4
-22 10 -196 31 -254 31 -16 0 -29 -4 -29 -8z"/>
<path d="M1940 982 c0 -11 99 -32 153 -32 26 0 47 4 47 9 0 13 -52 23 -105 20
-24 -2 -47 0 -51 4 -10 9 -44 9 -44 -1z"/>
<path d="M2157 964 c-8 -8 1 -24 14 -24 5 0 9 7 9 15 0 15 -12 20 -23 9z"/>
<path d="M740 950 c0 -5 5 -10 10 -10 6 0 10 5 10 10 0 6 -4 10 -10 10 -5 0
-10 -4 -10 -10z"/>
<path d="M0 795 c0 -17 18 -19 38 -6 11 7 10 10 -3 15 -26 10 -35 7 -35 -9z"/>
<path d="M0 410 c0 -5 11 -10 25 -10 14 0 25 5 25 10 0 6 -11 10 -25 10 -14 0
-25 -4 -25 -10z"/>
<path d="M96 407 c18 -8 35 -20 38 -26 9 -14 26 -14 26 -1 0 6 -7 10 -16 10
-8 0 -12 5 -9 10 3 6 0 10 -7 10 -7 0 -24 3 -38 6 -20 4 -19 2 6 -9z"/>
<path d="M88 373 c7 -3 16 -2 19 1 4 3 -2 6 -13 5 -11 0 -14 -3 -6 -6z"/>
<path d="M5 340 c-4 -6 6 -10 22 -10 22 0 25 2 13 10 -19 12 -27 12 -35 0z"/>
<path d="M128 333 c12 -2 30 -2 40 0 9 3 -1 5 -23 4 -22 0 -30 -2 -17 -4z"/>
<path d="M0 16 c0 -11 9 -16 26 -16 31 0 28 23 -4 28 -15 2 -22 -2 -22 -12z"/>
</g>
</svg>
